<svg width="40" height="41" viewBox="0 0 40 41" fill="none" xmlns="http://www.w3.org/2000/svg">
<path d="M3.33337 20.5L16.6667 24.5L36.6667 20.5L23.3334 16.5L3.33337 20.5Z" fill="white"/>
<path opacity="0.3" d="M34.8334 14.2L3.3334 20.5V12.3667C3.3346 11.8401 3.51777 11.3302 3.85187 10.9232C4.18598 10.5162 4.65048 10.2371 5.16673 10.1334L34.3667 4.30003C34.6446 4.24019 34.9323 4.24345 35.2088 4.30959C35.4852 4.37573 35.7433 4.50305 35.964 4.68218C36.1848 4.8613 36.3625 5.08767 36.4841 5.34459C36.6057 5.60152 36.6681 5.88245 36.6667 6.1667V11.9667C36.6655 12.4933 36.4823 13.0032 36.1482 13.4102C35.8141 13.8172 35.3496 14.0962 34.8334 14.2ZM36.6667 28.6333V20.5L5.16673 26.8C4.65048 26.9038 4.18598 27.1828 3.85187 27.5898C3.51777 27.9968 3.3346 28.5068 3.3334 29.0333V34.8333C3.33201 35.1176 3.39442 35.3985 3.51603 35.6554C3.63764 35.9124 3.81534 36.1387 4.03605 36.3179C4.25676 36.497 4.51485 36.6243 4.7913 36.6904C5.06775 36.7566 5.35552 36.7598 5.63339 36.7L34.8334 30.8667C35.3496 30.7629 35.8141 30.4839 36.1482 30.0769C36.4823 29.6699 36.6655 29.1599 36.6667 28.6333Z" fill="white"/>
</svg>
