<svg width="20" height="20" viewBox="0 0 20 20" fill="none" xmlns="http://www.w3.org/2000/svg">
<path d="M0 10.0001L8 12.4001L20 10.0001L12 7.6001L0 10.0001Z" fill="#50CD89"/>
<path d="M18.9 6.21995L1.35235e-05 9.99995V5.11995C0.000735669 4.80401 0.110635 4.49802 0.311098 4.25382C0.511562 4.00962 0.790267 3.84221 1.10001 3.77995L18.62 0.279947C18.7867 0.244039 18.9594 0.245999 19.1253 0.285681C19.2911 0.325363 19.446 0.401757 19.5784 0.509232C19.7108 0.616708 19.8175 0.752527 19.8904 0.906682C19.9634 1.06084 20.0008 1.2294 20 1.39995V4.87995C19.9993 5.19589 19.8894 5.50187 19.6889 5.74607C19.4885 5.99027 19.2098 6.15768 18.9 6.21995ZM20 14.8799V9.99995L1.10001 13.7799C0.790267 13.8422 0.511562 14.0096 0.311098 14.2538C0.110635 14.498 0.000735669 14.804 1.35235e-05 15.1199V18.5999C-0.000817144 18.7705 0.0366294 18.9391 0.109594 19.0932C0.182559 19.2474 0.289182 19.3832 0.421607 19.4907C0.554033 19.5981 0.708886 19.6745 0.874756 19.7142C1.04063 19.7539 1.21329 19.7559 1.38001 19.7199L18.9 16.2199C19.2098 16.1577 19.4885 15.9903 19.6889 15.7461C19.8894 15.5019 19.9993 15.1959 20 14.8799Z" fill="#2884EF"/>
</svg>
