<svg width="20" height="21" viewBox="0 0 20 21" fill="none" xmlns="http://www.w3.org/2000/svg">
<path d="M10.2587 19.4582H4.73366C3.75524 19.456 2.81753 19.0664 2.12569 18.3745C1.43384 17.6827 1.04419 16.745 1.04199 15.7666V10.2416C1.04199 9.2617 1.43067 8.32185 2.12275 7.62821C2.81483 6.93456 3.7538 6.54377 4.73366 6.54156H10.2587C11.24 6.54156 12.1811 6.93138 12.875 7.62526C13.5688 8.31915 13.9587 9.26026 13.9587 10.2416V15.7666C13.9565 16.7464 13.5657 17.6854 12.872 18.3775C12.1784 19.0696 11.2385 19.4582 10.2587 19.4582ZM4.73366 7.79156C4.08532 7.79376 3.4643 8.05286 3.00663 8.51209C2.54897 8.97131 2.29199 9.59322 2.29199 10.2416V15.7666C2.29199 16.4141 2.54924 17.0352 3.00714 17.4931C3.46504 17.951 4.08609 18.2082 4.73366 18.2082H10.2587C10.907 18.2082 11.5289 17.9513 11.9881 17.4936C12.4474 17.0359 12.7065 16.4149 12.7087 15.7666V10.2416C12.7087 9.59178 12.4505 8.96861 11.9911 8.50915C11.5316 8.04968 10.9084 7.79156 10.2587 7.79156H4.73366ZM16.292 14.3082C17.0607 14.0846 17.7362 13.6178 18.217 12.9777C18.6978 12.3376 18.9581 11.5588 18.9587 10.7582V5.23323C18.9565 4.25481 18.5668 3.3171 17.875 2.62525C17.1831 1.93341 16.2454 1.54376 15.267 1.54156H9.74199C8.96881 1.53731 8.2139 1.77648 7.58423 2.22518C6.95455 2.67388 6.48205 3.30935 6.23366 4.04156C6.20057 4.12097 6.18422 4.20636 6.18566 4.29238C6.18709 4.3784 6.20627 4.4632 6.24199 4.54147C6.27771 4.61974 6.3292 4.68979 6.39325 4.74723C6.45729 4.80468 6.53251 4.84828 6.61418 4.87531C6.69586 4.90235 6.78223 4.91223 6.8679 4.90434C6.95357 4.89644 7.03669 4.87095 7.11205 4.82945C7.18742 4.78795 7.2534 4.73134 7.30587 4.66316C7.35834 4.59498 7.39617 4.5167 7.41699 4.43323C7.58 3.9462 7.89244 3.52297 8.30985 3.22375C8.72727 2.92452 9.22841 2.76454 9.74199 2.76656H15.267C15.9146 2.76656 16.5356 3.02381 16.9935 3.48171C17.4514 3.93961 17.7087 4.56066 17.7087 5.20823V10.7332C17.7002 11.2613 17.5247 11.7732 17.2073 12.1954C16.8899 12.6175 16.447 12.9284 15.942 13.0832C15.7829 13.1296 15.6487 13.2374 15.569 13.3827C15.4893 13.528 15.4706 13.6991 15.517 13.8582C15.5634 14.0174 15.6711 14.1515 15.8165 14.2312C15.9618 14.3109 16.1329 14.3296 16.292 14.2832V14.3082Z" fill="#7E8299"/>
</svg>
