<svg width="20" height="20" viewBox="0 0 20 20" fill="none" xmlns="http://www.w3.org/2000/svg">
<path d="M16.9251 2.35824H15.1751C14.8624 2.35935 14.5546 2.43564 14.2775 2.58068C14.0005 2.72571 13.7625 2.93523 13.5834 3.19157L11.9917 1.90824C11.4098 1.49529 10.7136 1.27392 10.0001 1.27491H5.77506C5.23981 1.27455 4.71857 1.446 4.28804 1.76403C3.8575 2.08205 3.54041 2.52986 3.3834 3.04157L1.21673 10.1082C1.1207 10.4222 1.09931 10.7542 1.15425 11.0778C1.20918 11.4014 1.33894 11.7078 1.53317 11.9724C1.72741 12.2371 1.98075 12.4527 2.27304 12.6022C2.56532 12.7516 2.88847 12.8307 3.21673 12.8332H6.6084C6.66254 12.8332 6.71603 12.8451 6.76501 12.8681C6.814 12.8912 6.85728 12.9248 6.89173 12.9666C6.92707 13.0088 6.95222 13.0585 6.96522 13.112C6.97823 13.1655 6.97874 13.2212 6.96673 13.2749L6.5334 15.7749C6.42511 16.3404 6.51944 16.926 6.79983 17.4288C7.08022 17.9317 7.52876 18.3198 8.06673 18.5249C8.36864 18.6476 8.69087 18.7126 9.01673 18.7166C9.42589 18.7139 9.82786 18.6087 10.186 18.4108C10.544 18.2128 10.8468 17.9283 11.0667 17.5832L13.4001 14.0499C13.5519 14.3942 13.8005 14.687 14.1156 14.8926C14.4307 15.0983 14.7988 15.2079 15.1751 15.2082H16.9251C17.4422 15.2082 17.9382 15.0028 18.3039 14.6371C18.6696 14.2714 18.8751 13.7754 18.8751 13.2582V4.30824C18.8751 3.79107 18.6696 3.29508 18.3039 2.92938C17.9382 2.56368 17.4422 2.35824 16.9251 2.35824ZM10.0001 16.9082C9.84257 17.1461 9.60796 17.3225 9.33568 17.4078C9.0634 17.493 8.77008 17.4819 8.50504 17.3763C8.24 17.2707 8.01943 17.077 7.88041 16.8278C7.74139 16.5787 7.69242 16.2893 7.74173 16.0082L8.17507 13.5082C8.21733 13.2752 8.20789 13.0358 8.14741 12.8068C8.08693 12.5779 7.97689 12.365 7.82507 12.1832C7.67227 12.0045 7.48339 11.8601 7.27082 11.7596C7.05826 11.6591 6.82682 11.6046 6.59173 11.5999H3.20006C3.06645 11.6006 2.93462 11.5692 2.81569 11.5083C2.69676 11.4474 2.59423 11.3588 2.51673 11.2499C2.43516 11.1435 2.38044 11.0191 2.35723 10.8871C2.33402 10.755 2.343 10.6194 2.3834 10.4916L4.55006 3.42491C4.6236 3.15718 4.78362 2.92129 5.00518 2.75398C5.22675 2.58668 5.49744 2.49735 5.77506 2.49991H10.0001C10.4434 2.49763 10.8768 2.63143 11.2417 2.88324L13.2167 4.45824V6.04991V12.0416L10.0001 16.9082ZM17.6001 13.2749C17.5979 13.4599 17.5235 13.6367 17.3926 13.7675C17.2618 13.8983 17.085 13.9727 16.9001 13.9749H15.1501C14.9644 13.9749 14.7864 13.9012 14.6551 13.7699C14.5238 13.6386 14.4501 13.4606 14.4501 13.2749V4.30824C14.4501 4.12259 14.5238 3.94454 14.6551 3.81326C14.7864 3.68199 14.9644 3.60824 15.1501 3.60824H16.9001C17.085 3.6104 17.2618 3.68485 17.3926 3.81566C17.5235 3.94647 17.5979 4.12326 17.6001 4.30824V13.2749Z" fill="#7E8299"/>
</svg>
