<svg width="20" height="20" viewBox="0 0 20 20" fill="none" xmlns="http://www.w3.org/2000/svg">
<path d="M10.2584 18.9582H4.73341C3.755 18.956 2.81729 18.5664 2.12544 17.8745C1.4336 17.1827 1.04395 16.245 1.04175 15.2666V9.74156C1.04175 8.7617 1.43042 7.82185 2.1225 7.12821C2.81459 6.43456 3.75356 6.04377 4.73341 6.04156H10.2584C11.2397 6.04156 12.1808 6.43138 12.8747 7.12526C13.5686 7.81915 13.9584 8.76026 13.9584 9.74156V15.2666C13.9562 16.2464 13.5654 17.1854 12.8718 17.8775C12.1781 18.5696 11.2383 18.9582 10.2584 18.9582ZM4.73341 7.29156C4.08508 7.29376 3.46405 7.55286 3.00639 8.01209C2.54872 8.47131 2.29174 9.09322 2.29175 9.74156V15.2666C2.29175 15.9141 2.54899 16.5352 3.0069 16.9931C3.4648 17.451 4.08584 17.7082 4.73341 17.7082H10.2584C10.9068 17.7082 11.5287 17.4513 11.9879 16.9936C12.4471 16.5359 12.7062 15.9149 12.7084 15.2666V9.74156C12.7084 9.09178 12.4503 8.46861 11.9908 8.00915C11.5314 7.54968 10.9082 7.29156 10.2584 7.29156H4.73341ZM16.2917 13.8082C17.0605 13.5846 17.7359 13.1178 18.2167 12.4777C18.6976 11.8376 18.9578 11.0588 18.9584 10.2582V4.73323C18.9562 3.75481 18.5666 2.8171 17.8747 2.12525C17.1829 1.43341 16.2452 1.04376 15.2667 1.04156H9.74175C8.96857 1.03731 8.21366 1.27648 7.58399 1.72518C6.95431 2.17388 6.4818 2.80935 6.23341 3.54156C6.20032 3.62097 6.18398 3.70636 6.18541 3.79238C6.18685 3.8784 6.20602 3.9632 6.24174 4.04147C6.27747 4.11974 6.32896 4.18979 6.393 4.24723C6.45705 4.30468 6.53226 4.34828 6.61394 4.37531C6.69561 4.40235 6.78199 4.41223 6.86766 4.40434C6.95333 4.39644 7.03645 4.37095 7.11181 4.32945C7.18717 4.28795 7.25315 4.23134 7.30563 4.16316C7.3581 4.09498 7.39593 4.0167 7.41675 3.93323C7.57976 3.4462 7.89219 3.02297 8.30961 2.72375C8.72703 2.42452 9.22817 2.26454 9.74175 2.26656H15.2667C15.9143 2.26656 16.5354 2.52381 16.9933 2.98171C17.4512 3.43961 17.7084 4.06066 17.7084 4.70823V10.2332C17.6999 10.7613 17.5244 11.2732 17.207 11.6954C16.8897 12.1175 16.4467 12.4284 15.9417 12.5832C15.7826 12.6296 15.6484 12.7374 15.5687 12.8827C15.489 13.028 15.4703 13.1991 15.5167 13.3582C15.5632 13.5174 15.6709 13.6515 15.8162 13.7312C15.9616 13.8109 16.1326 13.8296 16.2917 13.7832V13.8082Z" fill="#3E97FF"/>
</svg>
