<svg width="20" height="20" viewBox="0 0 20 20" fill="none" xmlns="http://www.w3.org/2000/svg">
<path d="M3.07524 17.6415H4.82524C5.13793 17.6404 5.44575 17.5641 5.72277 17.4191C5.99978 17.2741 6.23785 17.0645 6.41691 16.8082L8.00858 18.0832C8.59027 18.4967 9.28659 18.7181 10.0002 18.7165H14.2252C14.7605 18.7169 15.2817 18.5454 15.7123 18.2274C16.1428 17.9094 16.4599 17.4616 16.6169 16.9499L18.7836 9.8832C18.8796 9.56929 18.901 9.23729 18.8461 8.91364C18.7911 8.59 18.6614 8.28365 18.4671 8.01901C18.2729 7.75436 18.0196 7.53873 17.7273 7.38929C17.435 7.23984 17.1118 7.16071 16.7836 7.1582H13.3919C13.3378 7.15828 13.2843 7.14636 13.2353 7.1233C13.1863 7.10025 13.143 7.06663 13.1086 7.02487C13.0733 6.98249 13.0477 6.93301 13.0333 6.8798C13.0189 6.82659 13.0162 6.7709 13.0252 6.71654L13.4669 4.21654C13.5752 3.65105 13.4809 3.06549 13.2005 2.56262C12.9201 2.05974 12.4716 1.67168 11.9336 1.46654C11.6312 1.34652 11.3089 1.28434 10.9836 1.2832C10.5746 1.28806 10.1731 1.39317 9.81428 1.58931C9.45541 1.78545 9.15015 2.06663 8.92524 2.4082L6.60024 5.9332C6.44758 5.58953 6.19879 5.29734 5.88386 5.09182C5.56893 4.8863 5.2013 4.77623 4.82524 4.77487H3.07524C2.55731 4.77707 2.06134 4.98437 1.69588 5.35139C1.33042 5.71841 1.12524 6.21526 1.12524 6.7332V15.6915C1.12524 15.9476 1.17568 16.2012 1.27368 16.4378C1.37168 16.6744 1.51531 16.8893 1.69639 17.0704C1.87746 17.2515 2.09243 17.3951 2.32901 17.4931C2.5656 17.5911 2.81917 17.6415 3.07524 17.6415ZM10.0002 3.09154C10.1577 2.85364 10.3924 2.67723 10.6646 2.59199C10.9369 2.50675 11.2302 2.51788 11.4953 2.6235C11.7603 2.72912 11.9809 2.9228 12.1199 3.17195C12.2589 3.4211 12.3079 3.71052 12.2586 3.99154L11.8252 6.49154C11.783 6.72455 11.7924 6.964 11.8529 7.19296C11.9134 7.42192 12.0234 7.6348 12.1752 7.81654C12.328 7.99527 12.5169 8.13965 12.7295 8.24018C12.9421 8.34072 13.1735 8.39514 13.4086 8.39987H16.8002C16.9372 8.39211 17.074 8.41828 17.1984 8.47605C17.3228 8.53383 17.431 8.62142 17.5135 8.73107C17.5959 8.84071 17.65 8.96901 17.6709 9.10458C17.6919 9.24014 17.6791 9.37879 17.6336 9.5082L15.4669 16.5749C15.394 16.8461 15.2318 17.0849 15.0065 17.2528C14.7813 17.4206 14.506 17.5076 14.2252 17.4999H10.0002C9.55907 17.5048 9.12755 17.3707 8.76691 17.1165L6.79191 15.5165V13.9249V7.9332L10.0002 3.09154ZM2.37524 6.7332C2.37414 6.64058 2.39143 6.54866 2.42612 6.46277C2.4608 6.37687 2.51219 6.29872 2.5773 6.23283C2.64241 6.16695 2.71995 6.11464 2.80543 6.07894C2.8909 6.04324 2.98261 6.02486 3.07524 6.02487H4.82524C5.01166 6.02706 5.18969 6.10266 5.32073 6.23526C5.45177 6.36786 5.52526 6.54678 5.52524 6.7332V15.6915C5.52308 15.8765 5.44864 16.0533 5.31783 16.1841C5.18702 16.3149 5.01022 16.3894 4.82524 16.3915H3.07524C2.88959 16.3915 2.71154 16.3178 2.58027 16.1865C2.44899 16.0552 2.37524 15.8772 2.37524 15.6915V6.7332Z" fill="#7E8299"/>
</svg>
