<svg width="28" height="27" viewBox="0 0 28 27" fill="none" xmlns="http://www.w3.org/2000/svg">
<path d="M0.666626 13.5L11.3333 16.7L27.3333 13.5L16.6666 10.3L0.666626 13.5Z" fill="#50CD89"/>
<path d="M25.8668 8.46004L0.666827 13.5V6.99338C0.66779 6.57212 0.814322 6.16415 1.08161 5.83855C1.34889 5.51295 1.7205 5.28973 2.13349 5.20671L25.4935 0.540051C25.7158 0.492175 25.946 0.494787 26.1671 0.547697C26.3883 0.600606 26.5948 0.702464 26.7713 0.845765C26.9479 0.989066 27.0901 1.17016 27.1874 1.3757C27.2846 1.58124 27.3346 1.80599 27.3335 2.03338V6.67338C27.3325 7.09463 27.186 7.50261 26.9187 7.82821C26.6514 8.15381 26.2798 8.37702 25.8668 8.46004ZM27.3335 20.0067V13.5L2.13349 18.54C1.7205 18.6231 1.34889 18.8463 1.08161 19.1719C0.814322 19.4975 0.66779 19.9054 0.666827 20.3267V24.9667C0.66572 25.1941 0.715648 25.4188 0.812934 25.6244C0.91022 25.8299 1.05238 26.011 1.22895 26.1543C1.40552 26.2976 1.61199 26.3995 1.83315 26.4524C2.05431 26.5053 2.28452 26.5079 2.50683 26.46L25.8668 21.7934C26.2798 21.7103 26.6514 21.4871 26.9187 21.1615C27.186 20.8359 27.3325 20.428 27.3335 20.0067Z" fill="#2884EF"/>
</svg>
