<svg width="24" height="24" viewBox="0 0 24 24" fill="none" xmlns="http://www.w3.org/2000/svg">
<path d="M11.3299 22.7499H6.88994C5.61914 22.7877 4.38506 22.3208 3.45749 21.4513C2.52992 20.5819 1.98431 19.3805 1.93994 18.1099V5.88993C1.98431 4.61934 2.52992 3.41799 3.45749 2.54851C4.38506 1.67903 5.61914 1.21215 6.88994 1.24993H11.3299C12.5998 1.21219 13.8328 1.67938 14.7588 2.54913C15.6847 3.41887 16.2282 4.62023 16.2699 5.88993C16.2699 6.09149 16.1899 6.2848 16.0473 6.42733C15.9048 6.56986 15.7115 6.64993 15.5099 6.64993C15.3084 6.64993 15.1151 6.56986 14.9725 6.42733C14.83 6.2848 14.7499 6.09149 14.7499 5.88993C14.7059 5.02421 14.3219 4.21087 13.6815 3.62665C13.0411 3.04243 12.1961 2.73456 11.3299 2.76993H6.88994C6.02314 2.7319 5.17658 3.03887 4.53559 3.62363C3.89461 4.20838 3.51143 5.02328 3.46994 5.88993V18.1099C3.51143 18.9766 3.89461 19.7915 4.53559 20.3762C5.17658 20.961 6.02314 21.268 6.88994 21.2299H11.3299C12.1961 21.2653 13.0411 20.9574 13.6815 20.3732C14.3219 19.789 14.7059 18.9756 14.7499 18.1099C14.7499 17.9084 14.83 17.7151 14.9725 17.5725C15.1151 17.43 15.3084 17.3499 15.5099 17.3499C15.7115 17.3499 15.9048 17.43 16.0473 17.5725C16.1899 17.7151 16.2699 17.9084 16.2699 18.1099C16.2282 19.3796 15.6847 20.581 14.7588 21.4507C13.8328 22.3205 12.5998 22.7877 11.3299 22.7499ZM7.87994 11.9999C7.87994 12.0997 7.8996 12.1986 7.93779 12.2908C7.97599 12.383 8.03197 12.4668 8.10254 12.5373C8.17311 12.6079 8.25689 12.6639 8.3491 12.7021C8.44131 12.7403 8.54014 12.7599 8.63994 12.7599H18.7099L16.9999 14.4299C16.9286 14.5006 16.8719 14.5847 16.8333 14.6774C16.7946 14.7701 16.7747 14.8695 16.7747 14.9699C16.7747 15.0704 16.7946 15.1698 16.8333 15.2625C16.8719 15.3552 16.9286 15.4393 16.9999 15.5099C17.0707 15.5808 17.1549 15.6368 17.2477 15.6746C17.3404 15.7123 17.4398 15.7312 17.5399 15.7299C17.6386 15.731 17.7364 15.712 17.8275 15.6742C17.9186 15.6364 18.001 15.5805 18.0699 15.5099L21.0699 12.5099C21.1413 12.4393 21.1979 12.3552 21.2366 12.2625C21.2752 12.1698 21.2952 12.0704 21.2952 11.9699C21.2952 11.8695 21.2752 11.7701 21.2366 11.6774C21.1979 11.5847 21.1413 11.5006 21.0699 11.4299L18.0699 8.42993C18.0001 8.35888 17.9169 8.30244 17.825 8.26391C17.7332 8.22539 17.6345 8.20555 17.5349 8.20555C17.4353 8.20555 17.3367 8.22539 17.2449 8.26391C17.153 8.30244 17.0697 8.35888 16.9999 8.42993C16.9286 8.5006 16.8719 8.5847 16.8333 8.67739C16.7946 8.77008 16.7747 8.8695 16.7747 8.96993C16.7747 9.07035 16.7946 9.16978 16.8333 9.26247C16.8719 9.35516 16.9286 9.43926 16.9999 9.50993L18.6699 11.1799H8.63994C8.53488 11.1796 8.43089 11.2011 8.33454 11.2429C8.2382 11.2848 8.15158 11.3462 8.08016 11.4233C8.00874 11.5004 7.95408 11.5914 7.91962 11.6906C7.88516 11.7899 7.87165 11.8952 7.87994 11.9999Z" fill="#101828"/>
</svg>
