<svg width="20" height="20" viewBox="0 0 20 20" fill="none" xmlns="http://www.w3.org/2000/svg">
<g opacity="0.3">
<path d="M14.2834 1.66675H5.7167C5.18414 1.66675 4.65681 1.77178 4.1649 1.97583C3.67299 2.17988 3.22615 2.47895 2.84996 2.85591C2.47378 3.23287 2.17563 3.68032 1.97259 4.17265C1.76955 4.66499 1.6656 5.19253 1.6667 5.72508V11.9001C1.6667 12.9742 2.09339 14.0043 2.85291 14.7639C3.61244 15.5234 4.64257 15.9501 5.7167 15.9501H7.0417C7.22561 15.9495 7.40685 15.994 7.56956 16.0797C7.73228 16.1655 7.8715 16.2898 7.97503 16.4417L8.90836 17.7584C9.03134 17.9338 9.19476 18.0769 9.38478 18.1758C9.5748 18.2746 9.78584 18.3262 10 18.3262C10.2142 18.3262 10.4253 18.2746 10.6153 18.1758C10.8053 18.0769 10.9687 17.9338 11.0917 17.7584L12.025 16.4417C12.1286 16.2898 12.2678 16.1655 12.4305 16.0797C12.5932 15.994 12.7745 15.9495 12.9584 15.9501H14.2834C15.3575 15.9501 16.3876 15.5234 17.1471 14.7639C17.9067 14.0043 18.3334 12.9742 18.3334 11.9001V5.72508C18.3345 5.19253 18.2305 4.66499 18.0275 4.17265C17.8244 3.68032 17.5263 3.23287 17.1501 2.85591C16.7739 2.47895 16.3271 2.17988 15.8352 1.97583C15.3432 1.77178 14.8159 1.66675 14.2834 1.66675Z" fill="#3E97FF"/>
</g>
<path d="M13.9667 8.0249H6.03333C5.86756 8.0249 5.70859 7.95905 5.59138 7.84184C5.47417 7.72463 5.40833 7.56566 5.40833 7.3999C5.40833 7.23414 5.47417 7.07517 5.59138 6.95796C5.70859 6.84075 5.86756 6.7749 6.03333 6.7749H13.9667C14.1324 6.7749 14.2914 6.84075 14.4086 6.95796C14.5258 7.07517 14.5917 7.23414 14.5917 7.3999C14.5917 7.56566 14.5258 7.72463 14.4086 7.84184C14.2914 7.95905 14.1324 8.0249 13.9667 8.0249Z" fill="#3E97FF"/>
<path d="M12.6417 12.1917H7.35834C7.19258 12.1917 7.03361 12.1258 6.9164 12.0086C6.79919 11.8914 6.73334 11.7324 6.73334 11.5667C6.73334 11.4009 6.79919 11.2419 6.9164 11.1247C7.03361 11.0075 7.19258 10.9417 7.35834 10.9417H12.6417C12.8074 10.9417 12.9664 11.0075 13.0836 11.1247C13.2008 11.2419 13.2667 11.4009 13.2667 11.5667C13.2667 11.7324 13.2008 11.8914 13.0836 12.0086C12.9664 12.1258 12.8074 12.1917 12.6417 12.1917Z" fill="#3E97FF"/>
</svg>
