<svg width="20" height="20" viewBox="0 0 20 20" fill="none" xmlns="http://www.w3.org/2000/svg">
<path d="M9.6333 10.0583C9.63337 10.936 9.91056 11.7912 10.4253 12.502C10.9401 13.2128 11.6662 13.7429 12.5 14.0167C13.1725 13.5984 13.7293 13.0181 14.1195 12.3288C14.5096 11.6396 14.7205 10.8635 14.733 10.0716C14.7454 9.27972 14.5589 8.49736 14.1907 7.79621C13.8224 7.09506 13.284 6.49753 12.625 6.05835C11.761 6.31228 11.0026 6.83926 10.4633 7.56036C9.92398 8.28146 9.63277 9.15787 9.6333 10.0583Z" fill="#7E8299"/>
<g opacity="0.3">
<path d="M8.49163 10.0583C8.49147 9.11318 8.74404 8.18521 9.22317 7.37055C9.7023 6.55588 10.3906 5.88415 11.2166 5.42497C10.8206 5.31428 10.4112 5.25821 9.99997 5.2583C8.7424 5.2583 7.53634 5.75787 6.6471 6.6471C5.75787 7.53634 5.2583 8.7424 5.2583 9.99997C5.2583 11.2575 5.75787 12.4636 6.6471 13.3528C7.53634 14.2421 8.7424 14.7416 9.99997 14.7416C10.3651 14.7399 10.7287 14.6951 11.0833 14.6083C10.2943 14.1392 9.64062 13.4733 9.18631 12.6757C8.73201 11.8781 8.49263 10.9762 8.49163 10.0583Z" fill="#7E8299"/>
</g>
<path d="M10 3.91668C9.84121 3.91704 9.68824 3.85694 9.57216 3.74859C9.45608 3.64025 9.38559 3.49178 9.375 3.33335V2.30835C9.375 2.14259 9.44085 1.98362 9.55806 1.86641C9.67527 1.7492 9.83424 1.68335 10 1.68335C10.1658 1.68335 10.3247 1.7492 10.4419 1.86641C10.5592 1.98362 10.625 2.14259 10.625 2.30835V3.33335C10.6144 3.49178 10.5439 3.64025 10.4278 3.74859C10.3118 3.85694 10.1588 3.91704 10 3.91668Z" fill="#7E8299"/>
<path d="M10 18.3335C9.83491 18.3313 9.67719 18.2648 9.56045 18.1481C9.4437 18.0313 9.37716 17.8736 9.375 17.7085V16.7085C9.375 16.5427 9.44085 16.3838 9.55806 16.2666C9.67527 16.1493 9.83424 16.0835 10 16.0835C10.1658 16.0835 10.3247 16.1493 10.4419 16.2666C10.5592 16.3838 10.625 16.5427 10.625 16.7085V17.6918C10.6261 17.775 10.6108 17.8576 10.58 17.9348C10.5492 18.0121 10.5034 18.0825 10.4454 18.1421C10.3874 18.2017 10.3182 18.2493 10.2417 18.2821C10.1653 18.3149 10.0832 18.3324 10 18.3335Z" fill="#7E8299"/>
<path d="M5.25835 5.88323C5.17624 5.88362 5.09487 5.8676 5.01903 5.83612C4.94318 5.80464 4.87439 5.75833 4.81669 5.6999L4.11669 4.9999C4.04174 4.94648 3.97934 4.87737 3.93382 4.79738C3.88831 4.71739 3.86077 4.62844 3.85314 4.53672C3.8455 4.445 3.85794 4.35272 3.8896 4.2663C3.92126 4.17989 3.97137 4.10141 4.03645 4.03633C4.10153 3.97125 4.18001 3.92114 4.26643 3.88948C4.35284 3.85782 4.44512 3.84538 4.53684 3.85301C4.62856 3.86065 4.71751 3.88819 4.7975 3.9337C4.87749 3.97922 4.9466 4.04162 5.00002 4.11657L5.69169 4.81657C5.80873 4.93375 5.87447 5.09261 5.87447 5.25823C5.87447 5.42386 5.80873 5.58271 5.69169 5.6999C5.57715 5.81588 5.42135 5.88179 5.25835 5.88323Z" fill="#7E8299"/>
<path d="M15.4333 16.0667C15.2683 16.0631 15.1107 15.9976 14.9917 15.8833L14.3 15.1833C14.2386 15.1261 14.1893 15.0571 14.1552 14.9804C14.121 14.9038 14.1027 14.821 14.1012 14.7371C14.0997 14.6532 14.1151 14.5698 14.1466 14.492C14.178 14.4142 14.2248 14.3435 14.2841 14.2841C14.3435 14.2248 14.4142 14.178 14.492 14.1466C14.5698 14.1151 14.6532 14.0997 14.7371 14.1012C14.821 14.1027 14.9038 14.121 14.9804 14.1552C15.0571 14.1893 15.1261 14.2386 15.1833 14.3L15.8833 14.9917C15.9989 15.1113 16.0635 15.2711 16.0635 15.4375C16.0635 15.6038 15.9989 15.7637 15.8833 15.8833C15.7622 15.9996 15.6012 16.0652 15.4333 16.0667Z" fill="#7E8299"/>
<path d="M3.33335 10.625H2.30835C2.14259 10.625 1.98362 10.5592 1.86641 10.4419C1.7492 10.3247 1.68335 10.1658 1.68335 10C1.68335 9.83424 1.7492 9.67527 1.86641 9.55806C1.98362 9.44085 2.14259 9.375 2.30835 9.375H3.33335C3.49911 9.375 3.65808 9.44085 3.77529 9.55806C3.8925 9.67527 3.95835 9.83424 3.95835 10C3.95835 10.1658 3.8925 10.3247 3.77529 10.4419C3.65808 10.5592 3.49911 10.625 3.33335 10.625Z" fill="#7E8299"/>
<path d="M17.6917 10.625H16.7084C16.5426 10.625 16.3836 10.5592 16.2664 10.4419C16.1492 10.3247 16.0834 10.1658 16.0834 10C16.0834 9.83424 16.1492 9.67527 16.2664 9.55806C16.3836 9.44085 16.5426 9.375 16.7084 9.375H17.6917C17.8575 9.375 18.0164 9.44085 18.1336 9.55806C18.2509 9.67527 18.3167 9.83424 18.3167 10C18.3167 10.1658 18.2509 10.3247 18.1336 10.4419C18.0164 10.5592 17.8575 10.625 17.6917 10.625Z" fill="#7E8299"/>
<path d="M4.5667 16.0667C4.39881 16.0652 4.23784 15.9996 4.1167 15.8833C4.00112 15.7637 3.93652 15.6038 3.93652 15.4375C3.93652 15.2711 4.00112 15.1113 4.1167 14.9917L4.8167 14.3C4.87392 14.2386 4.94292 14.1893 5.01959 14.1552C5.09626 14.121 5.17902 14.1027 5.26294 14.1012C5.34685 14.0997 5.43021 14.1151 5.50804 14.1466C5.58586 14.178 5.65655 14.2248 5.7159 14.2841C5.77525 14.3435 5.82204 14.4142 5.85347 14.492C5.88491 14.5698 5.90034 14.6532 5.89886 14.7371C5.89738 14.821 5.87902 14.9038 5.84486 14.9804C5.8107 15.0571 5.76144 15.1261 5.70004 15.1833L5.00004 15.8833C4.88311 15.9957 4.7288 16.061 4.5667 16.0667Z" fill="#7E8299"/>
<path d="M14.7417 5.88323C14.6596 5.88362 14.5782 5.8676 14.5024 5.83612C14.4265 5.80464 14.3577 5.75833 14.3 5.6999C14.183 5.58271 14.1172 5.42386 14.1172 5.25823C14.1172 5.09261 14.183 4.93375 14.3 4.81657L15 4.11657C15.0534 4.04162 15.1226 3.97922 15.2026 3.9337C15.2825 3.88819 15.3715 3.86065 15.4632 3.85301C15.5549 3.84538 15.6472 3.85782 15.7336 3.88948C15.82 3.92114 15.8985 3.97125 15.9636 4.03633C16.0287 4.10141 16.0788 4.17989 16.1105 4.2663C16.1421 4.35272 16.1546 4.445 16.1469 4.53672C16.1393 4.62844 16.1117 4.71739 16.0662 4.79738C16.0207 4.87737 15.9583 4.94648 15.8834 4.9999L15.1834 5.69157C15.1264 5.7515 15.0579 5.79936 14.982 5.83228C14.9061 5.86521 14.8244 5.88254 14.7417 5.88323Z" fill="#7E8299"/>
</svg>
