<svg width="56" height="19" viewBox="0 0 56 19" fill="none" xmlns="http://www.w3.org/2000/svg">
<path opacity="0.12" d="M17.4163 18.2538C20.1326 18.2538 22.5093 16.5949 23.8335 13.8358C24.7503 11.9231 26.3291 10.789 28.0777 10.789C29.8433 10.789 31.4391 11.9231 32.3389 13.8358C33.6631 16.6118 36.0738 18.2368 38.7901 18.2368C41.4894 18.2368 43.8831 16.5949 45.2073 13.8358C46.1071 11.9231 47.7029 10.789 49.4515 10.789C50.9115 10.789 52.2527 11.5676 53.1864 12.9387C53.5259 13.4296 54.171 13.6158 54.6973 13.3619H54.7313C54.8863 13.2902 55.024 13.186 55.1349 13.0564C55.2459 12.9268 55.3275 12.775 55.3742 12.6111C55.4209 12.4472 55.4317 12.2752 55.4057 12.1068C55.3797 11.9384 55.3176 11.7776 55.2236 11.6353C54.6107 10.6557 53.7612 9.84492 52.7528 9.27716C51.7444 8.70941 50.6094 8.40278 49.4515 8.38535C46.7352 8.38535 44.3585 10.0442 43.0343 12.8033C42.1175 14.6991 40.5217 15.8501 38.7901 15.8501C37.0245 15.8501 35.4287 14.6991 34.5289 12.8033C33.2047 10.0273 30.794 8.40228 28.0777 8.40228C25.3784 8.40228 22.9847 10.0442 21.6605 12.8033C20.7607 14.6991 19.1649 15.8501 17.4163 15.8501C15.6507 15.8501 14.0719 14.6991 13.1721 12.8033C11.8479 10.0273 9.43719 8.40228 6.7209 8.40228C4.03856 8.40228 1.62786 10.0103 0.320651 12.7694C0.186655 13.041 0.15581 13.3518 0.233832 13.6443C0.311854 13.9368 0.493464 14.1912 0.745071 14.3606C1.37321 14.7499 2.1881 14.496 2.49368 13.8528C3.39345 11.9569 4.98927 10.8059 6.73788 10.8059C8.50346 10.8059 10.0823 11.9569 10.9821 13.8528C12.2893 16.6118 14.717 18.2538 17.4163 18.2538ZM17.3484 9.94263C20.0647 9.94263 22.4584 8.28379 23.7826 5.5247C24.6824 3.61196 26.2782 2.47785 28.0268 2.47785C29.7924 2.47785 31.3712 3.61196 32.271 5.5247C33.5952 8.30072 36.0059 9.92569 38.7222 9.92569C41.4384 9.92569 43.8152 8.28379 45.1394 5.5247C46.0561 3.61196 47.635 2.47785 49.3836 2.47785C51.1492 2.47785 52.745 3.61196 53.6448 5.5247C53.7844 5.81651 54.0345 6.04107 54.3401 6.149C54.6457 6.25693 54.9819 6.23938 55.2745 6.10021C55.5672 5.96104 55.7924 5.71166 55.9007 5.40691C56.0089 5.10217 55.9913 4.76703 55.8517 4.47523C54.5275 1.69921 52.1169 0.0742188 49.4006 0.0742188C46.7013 0.0742188 44.3075 1.71614 42.9833 4.47523C42.0666 6.38797 40.4877 7.52207 38.7391 7.52207C36.9736 7.52207 35.3777 6.38797 34.478 4.47523C33.1538 1.69921 30.7431 0.0742188 28.0438 0.0742188C25.3275 0.0742188 22.9337 1.71614 21.6096 4.47523C20.7098 6.38797 19.114 7.52207 17.3654 7.52207C15.6167 7.52207 14.0209 6.38797 13.1212 4.47523C11.797 1.69921 9.38626 0.0742188 6.66997 0.0742188C3.97066 0.0742188 1.57693 1.71614 0.252742 4.47523C0.113164 4.76703 0.0955605 5.10217 0.203809 5.40691C0.312057 5.71166 0.537283 5.96104 0.829947 6.10021C1.12261 6.23938 1.45875 6.25693 1.76439 6.149C2.07003 6.04107 2.32014 5.81651 2.45972 5.5247C3.35949 3.61196 4.93833 2.47785 6.70392 2.47785C8.45253 2.47785 10.0483 3.61196 10.9481 5.5247C12.2384 8.28379 14.6491 9.92569 17.3484 9.92569V9.94263Z" fill="white"/>
</svg>
