<svg width="106" height="115" viewBox="0 0 106 115" fill="none" xmlns="http://www.w3.org/2000/svg">
<g opacity="0.1">
<path d="M4.29047 1.69526C4.29047 2.62862 3.53562 3.38527 2.60446 3.38527C1.67331 3.38527 0.918457 2.62862 0.918457 1.69526C0.918457 0.761892 1.67331 0.00524902 2.60446 0.00524902C3.53562 0.00524902 4.29047 0.761892 4.29047 1.69526Z" fill="white"/>
<path d="M14.4065 1.69526C14.4065 2.62862 13.6517 3.38527 12.7205 3.38527C11.7893 3.38527 11.0345 2.62862 11.0345 1.69526C11.0345 0.761892 11.7893 0.00524902 12.7205 0.00524902C13.6517 0.00524902 14.4065 0.761892 14.4065 1.69526Z" fill="white"/>
<path d="M24.5225 1.69526C24.5225 2.62862 23.7677 3.38527 22.8365 3.38527C21.9054 3.38527 21.1505 2.62862 21.1505 1.69526C21.1505 0.761892 21.9054 0.00524902 22.8365 0.00524902C23.7677 0.00524902 24.5225 0.761892 24.5225 1.69526Z" fill="white"/>
<path d="M34.6386 1.69526C34.6386 2.62862 33.8837 3.38527 32.9526 3.38527C32.0214 3.38527 31.2666 2.62862 31.2666 1.69526C31.2666 0.761892 32.0214 0.00524902 32.9526 0.00524902C33.8837 0.00524902 34.6386 0.761892 34.6386 1.69526Z" fill="white"/>
<path d="M44.7546 1.69526C44.7546 2.62862 43.9997 3.38527 43.0686 3.38527C42.1374 3.38527 41.3826 2.62862 41.3826 1.69526C41.3826 0.761892 42.1374 0.00524902 43.0686 0.00524902C43.9997 0.00524902 44.7546 0.761892 44.7546 1.69526Z" fill="white"/>
<path d="M54.8706 1.69526C54.8706 2.62862 54.1158 3.38527 53.1846 3.38527C52.2535 3.38527 51.4986 2.62862 51.4986 1.69526C51.4986 0.761892 52.2535 0.00524902 53.1846 0.00524902C54.1158 0.00524902 54.8706 0.761892 54.8706 1.69526Z" fill="white"/>
<path d="M64.9867 1.69526C64.9867 2.62862 64.2318 3.38527 63.3007 3.38527C62.3695 3.38527 61.6147 2.62862 61.6147 1.69526C61.6147 0.761892 62.3695 0.00524902 63.3007 0.00524902C64.2318 0.00524902 64.9867 0.761892 64.9867 1.69526Z" fill="white"/>
<path d="M75.1027 1.69526C75.1027 2.62862 74.3478 3.38527 73.4167 3.38527C72.4855 3.38527 71.7307 2.62862 71.7307 1.69526C71.7307 0.761892 72.4855 0.00524902 73.4167 0.00524902C74.3478 0.00524902 75.1027 0.761892 75.1027 1.69526Z" fill="white"/>
<path d="M85.2187 1.69526C85.2187 2.62862 84.4639 3.38527 83.5327 3.38527C82.6016 3.38527 81.8467 2.62862 81.8467 1.69526C81.8467 0.761892 82.6016 0.00524902 83.5327 0.00524902C84.4639 0.00524902 85.2187 0.761892 85.2187 1.69526Z" fill="white"/>
<path d="M95.3348 1.69526C95.3348 2.62862 94.5799 3.38527 93.6488 3.38527C92.7176 3.38527 91.9628 2.62862 91.9628 1.69526C91.9628 0.761892 92.7176 0.00524902 93.6488 0.00524902C94.5799 0.00524902 95.3348 0.761892 95.3348 1.69526Z" fill="white"/>
<path d="M105.451 1.69526C105.451 2.62862 104.696 3.38527 103.765 3.38527C102.834 3.38527 102.079 2.62862 102.079 1.69526C102.079 0.761892 102.834 0.00524902 103.765 0.00524902C104.696 0.00524902 105.451 0.761892 105.451 1.69526Z" fill="white"/>
<path d="M4.29047 11.8353C4.29047 12.7687 3.53562 13.5253 2.60446 13.5253C1.67331 13.5253 0.918457 12.7687 0.918457 11.8353C0.918457 10.9019 1.67331 10.1453 2.60446 10.1453C3.53562 10.1453 4.29047 10.9019 4.29047 11.8353Z" fill="white"/>
<path d="M14.4065 11.8353C14.4065 12.7687 13.6517 13.5253 12.7205 13.5253C11.7893 13.5253 11.0345 12.7687 11.0345 11.8353C11.0345 10.9019 11.7893 10.1453 12.7205 10.1453C13.6517 10.1453 14.4065 10.9019 14.4065 11.8353Z" fill="white"/>
<path d="M24.5225 11.8353C24.5225 12.7687 23.7677 13.5253 22.8365 13.5253C21.9054 13.5253 21.1505 12.7687 21.1505 11.8353C21.1505 10.9019 21.9054 10.1453 22.8365 10.1453C23.7677 10.1453 24.5225 10.9019 24.5225 11.8353Z" fill="white"/>
<path d="M34.6386 11.8353C34.6386 12.7687 33.8837 13.5253 32.9526 13.5253C32.0214 13.5253 31.2666 12.7687 31.2666 11.8353C31.2666 10.9019 32.0214 10.1453 32.9526 10.1453C33.8837 10.1453 34.6386 10.9019 34.6386 11.8353Z" fill="white"/>
<path d="M44.7546 11.8353C44.7546 12.7687 43.9997 13.5253 43.0686 13.5253C42.1374 13.5253 41.3826 12.7687 41.3826 11.8353C41.3826 10.9019 42.1374 10.1453 43.0686 10.1453C43.9997 10.1453 44.7546 10.9019 44.7546 11.8353Z" fill="white"/>
<path d="M54.8706 11.8353C54.8706 12.7687 54.1158 13.5253 53.1846 13.5253C52.2535 13.5253 51.4986 12.7687 51.4986 11.8353C51.4986 10.9019 52.2535 10.1453 53.1846 10.1453C54.1158 10.1453 54.8706 10.9019 54.8706 11.8353Z" fill="white"/>
<path d="M64.9867 11.8353C64.9867 12.7687 64.2318 13.5253 63.3007 13.5253C62.3695 13.5253 61.6147 12.7687 61.6147 11.8353C61.6147 10.9019 62.3695 10.1453 63.3007 10.1453C64.2318 10.1453 64.9867 10.9019 64.9867 11.8353Z" fill="white"/>
<path d="M75.1027 11.8353C75.1027 12.7687 74.3478 13.5253 73.4167 13.5253C72.4855 13.5253 71.7307 12.7687 71.7307 11.8353C71.7307 10.9019 72.4855 10.1453 73.4167 10.1453C74.3478 10.1453 75.1027 10.9019 75.1027 11.8353Z" fill="white"/>
<path d="M85.2187 11.8353C85.2187 12.7687 84.4639 13.5253 83.5327 13.5253C82.6016 13.5253 81.8467 12.7687 81.8467 11.8353C81.8467 10.9019 82.6016 10.1453 83.5327 10.1453C84.4639 10.1453 85.2187 10.9019 85.2187 11.8353Z" fill="white"/>
<path d="M95.3348 11.8353C95.3348 12.7687 94.5799 13.5253 93.6488 13.5253C92.7176 13.5253 91.9628 12.7687 91.9628 11.8353C91.9628 10.9019 92.7176 10.1453 93.6488 10.1453C94.5799 10.1453 95.3348 10.9019 95.3348 11.8353Z" fill="white"/>
<path d="M105.451 11.8353C105.451 12.7687 104.696 13.5253 103.765 13.5253C102.834 13.5253 102.079 12.7687 102.079 11.8353C102.079 10.9019 102.834 10.1453 103.765 10.1453C104.696 10.1453 105.451 10.9019 105.451 11.8353Z" fill="white"/>
<path d="M4.29047 21.9754C4.29047 22.9087 3.53562 23.6654 2.60446 23.6654C1.67331 23.6654 0.918457 22.9087 0.918457 21.9754C0.918457 21.042 1.67331 20.2854 2.60446 20.2854C3.53562 20.2854 4.29047 21.042 4.29047 21.9754Z" fill="white"/>
<path d="M14.4065 21.9754C14.4065 22.9087 13.6517 23.6654 12.7205 23.6654C11.7893 23.6654 11.0345 22.9087 11.0345 21.9754C11.0345 21.042 11.7893 20.2854 12.7205 20.2854C13.6517 20.2854 14.4065 21.042 14.4065 21.9754Z" fill="white"/>
<path d="M24.5225 21.9754C24.5225 22.9087 23.7677 23.6654 22.8365 23.6654C21.9054 23.6654 21.1505 22.9087 21.1505 21.9754C21.1505 21.042 21.9054 20.2854 22.8365 20.2854C23.7677 20.2854 24.5225 21.042 24.5225 21.9754Z" fill="white"/>
<path d="M34.6386 21.9754C34.6386 22.9087 33.8837 23.6654 32.9526 23.6654C32.0214 23.6654 31.2666 22.9087 31.2666 21.9754C31.2666 21.042 32.0214 20.2854 32.9526 20.2854C33.8837 20.2854 34.6386 21.042 34.6386 21.9754Z" fill="white"/>
<path d="M44.7546 21.9754C44.7546 22.9087 43.9997 23.6654 43.0686 23.6654C42.1374 23.6654 41.3826 22.9087 41.3826 21.9754C41.3826 21.042 42.1374 20.2854 43.0686 20.2854C43.9997 20.2854 44.7546 21.042 44.7546 21.9754Z" fill="white"/>
<path d="M54.8706 21.9754C54.8706 22.9087 54.1158 23.6654 53.1846 23.6654C52.2535 23.6654 51.4986 22.9087 51.4986 21.9754C51.4986 21.042 52.2535 20.2854 53.1846 20.2854C54.1158 20.2854 54.8706 21.042 54.8706 21.9754Z" fill="white"/>
<path d="M64.9867 21.9754C64.9867 22.9087 64.2318 23.6654 63.3007 23.6654C62.3695 23.6654 61.6147 22.9087 61.6147 21.9754C61.6147 21.042 62.3695 20.2854 63.3007 20.2854C64.2318 20.2854 64.9867 21.042 64.9867 21.9754Z" fill="white"/>
<path d="M75.1027 21.9754C75.1027 22.9087 74.3478 23.6654 73.4167 23.6654C72.4855 23.6654 71.7307 22.9087 71.7307 21.9754C71.7307 21.042 72.4855 20.2854 73.4167 20.2854C74.3478 20.2854 75.1027 21.042 75.1027 21.9754Z" fill="white"/>
<path d="M85.2187 21.9754C85.2187 22.9087 84.4639 23.6654 83.5327 23.6654C82.6016 23.6654 81.8467 22.9087 81.8467 21.9754C81.8467 21.042 82.6016 20.2854 83.5327 20.2854C84.4639 20.2854 85.2187 21.042 85.2187 21.9754Z" fill="white"/>
<path d="M95.3348 21.9754C95.3348 22.9087 94.5799 23.6654 93.6488 23.6654C92.7176 23.6654 91.9628 22.9087 91.9628 21.9754C91.9628 21.042 92.7176 20.2854 93.6488 20.2854C94.5799 20.2854 95.3348 21.042 95.3348 21.9754Z" fill="white"/>
<path d="M105.451 21.9754C105.451 22.9087 104.696 23.6654 103.765 23.6654C102.834 23.6654 102.079 22.9087 102.079 21.9754C102.079 21.042 102.834 20.2854 103.765 20.2854C104.696 20.2854 105.451 21.042 105.451 21.9754Z" fill="white"/>
<path d="M4.29047 32.1154C4.29047 33.0488 3.53562 33.8054 2.60446 33.8054C1.67331 33.8054 0.918457 33.0488 0.918457 32.1154C0.918457 31.1821 1.67331 30.4254 2.60446 30.4254C3.53562 30.4254 4.29047 31.1821 4.29047 32.1154Z" fill="white"/>
<path d="M14.4065 32.1154C14.4065 33.0488 13.6517 33.8054 12.7205 33.8054C11.7893 33.8054 11.0345 33.0488 11.0345 32.1154C11.0345 31.1821 11.7893 30.4254 12.7205 30.4254C13.6517 30.4254 14.4065 31.1821 14.4065 32.1154Z" fill="white"/>
<path d="M24.5225 32.1154C24.5225 33.0488 23.7677 33.8054 22.8365 33.8054C21.9054 33.8054 21.1505 33.0488 21.1505 32.1154C21.1505 31.1821 21.9054 30.4254 22.8365 30.4254C23.7677 30.4254 24.5225 31.1821 24.5225 32.1154Z" fill="white"/>
<path d="M34.6386 32.1154C34.6386 33.0488 33.8837 33.8054 32.9526 33.8054C32.0214 33.8054 31.2666 33.0488 31.2666 32.1154C31.2666 31.1821 32.0214 30.4254 32.9526 30.4254C33.8837 30.4254 34.6386 31.1821 34.6386 32.1154Z" fill="white"/>
<path d="M44.7546 32.1154C44.7546 33.0488 43.9997 33.8054 43.0686 33.8054C42.1374 33.8054 41.3826 33.0488 41.3826 32.1154C41.3826 31.1821 42.1374 30.4254 43.0686 30.4254C43.9997 30.4254 44.7546 31.1821 44.7546 32.1154Z" fill="white"/>
<path d="M54.8706 32.1154C54.8706 33.0488 54.1158 33.8054 53.1846 33.8054C52.2535 33.8054 51.4986 33.0488 51.4986 32.1154C51.4986 31.1821 52.2535 30.4254 53.1846 30.4254C54.1158 30.4254 54.8706 31.1821 54.8706 32.1154Z" fill="white"/>
<path d="M64.9867 32.1154C64.9867 33.0488 64.2318 33.8054 63.3007 33.8054C62.3695 33.8054 61.6147 33.0488 61.6147 32.1154C61.6147 31.1821 62.3695 30.4254 63.3007 30.4254C64.2318 30.4254 64.9867 31.1821 64.9867 32.1154Z" fill="white"/>
<path d="M75.1027 32.1154C75.1027 33.0488 74.3478 33.8054 73.4167 33.8054C72.4855 33.8054 71.7307 33.0488 71.7307 32.1154C71.7307 31.1821 72.4855 30.4254 73.4167 30.4254C74.3478 30.4254 75.1027 31.1821 75.1027 32.1154Z" fill="white"/>
<path d="M85.2187 32.1154C85.2187 33.0488 84.4639 33.8054 83.5327 33.8054C82.6016 33.8054 81.8467 33.0488 81.8467 32.1154C81.8467 31.1821 82.6016 30.4254 83.5327 30.4254C84.4639 30.4254 85.2187 31.1821 85.2187 32.1154Z" fill="white"/>
<path d="M95.3348 32.1154C95.3348 33.0488 94.5799 33.8054 93.6488 33.8054C92.7176 33.8054 91.9628 33.0488 91.9628 32.1154C91.9628 31.1821 92.7176 30.4254 93.6488 30.4254C94.5799 30.4254 95.3348 31.1821 95.3348 32.1154Z" fill="white"/>
<path d="M105.451 32.1154C105.451 33.0488 104.696 33.8054 103.765 33.8054C102.834 33.8054 102.079 33.0488 102.079 32.1154C102.079 31.1821 102.834 30.4254 103.765 30.4254C104.696 30.4254 105.451 31.1821 105.451 32.1154Z" fill="white"/>
<path d="M4.29047 42.2555C4.29047 43.1889 3.53562 43.9455 2.60446 43.9455C1.67331 43.9455 0.918457 43.1889 0.918457 42.2555C0.918457 41.3221 1.67331 40.5655 2.60446 40.5655C3.53562 40.5655 4.29047 41.3221 4.29047 42.2555Z" fill="white"/>
<path d="M14.4065 42.2555C14.4065 43.1889 13.6517 43.9455 12.7205 43.9455C11.7893 43.9455 11.0345 43.1889 11.0345 42.2555C11.0345 41.3221 11.7893 40.5655 12.7205 40.5655C13.6517 40.5655 14.4065 41.3221 14.4065 42.2555Z" fill="white"/>
<path d="M24.5225 42.2555C24.5225 43.1889 23.7677 43.9455 22.8365 43.9455C21.9054 43.9455 21.1505 43.1889 21.1505 42.2555C21.1505 41.3221 21.9054 40.5655 22.8365 40.5655C23.7677 40.5655 24.5225 41.3221 24.5225 42.2555Z" fill="white"/>
<path d="M34.6386 42.2555C34.6386 43.1889 33.8837 43.9455 32.9526 43.9455C32.0214 43.9455 31.2666 43.1889 31.2666 42.2555C31.2666 41.3221 32.0214 40.5655 32.9526 40.5655C33.8837 40.5655 34.6386 41.3221 34.6386 42.2555Z" fill="white"/>
<path d="M44.7546 42.2555C44.7546 43.1889 43.9997 43.9455 43.0686 43.9455C42.1374 43.9455 41.3826 43.1889 41.3826 42.2555C41.3826 41.3221 42.1374 40.5655 43.0686 40.5655C43.9997 40.5655 44.7546 41.3221 44.7546 42.2555Z" fill="white"/>
<path d="M54.8706 42.2555C54.8706 43.1889 54.1158 43.9455 53.1846 43.9455C52.2535 43.9455 51.4986 43.1889 51.4986 42.2555C51.4986 41.3221 52.2535 40.5655 53.1846 40.5655C54.1158 40.5655 54.8706 41.3221 54.8706 42.2555Z" fill="white"/>
<path d="M64.9867 42.2555C64.9867 43.1889 64.2318 43.9455 63.3007 43.9455C62.3695 43.9455 61.6147 43.1889 61.6147 42.2555C61.6147 41.3221 62.3695 40.5655 63.3007 40.5655C64.2318 40.5655 64.9867 41.3221 64.9867 42.2555Z" fill="white"/>
<path d="M75.1027 42.2555C75.1027 43.1889 74.3478 43.9455 73.4167 43.9455C72.4855 43.9455 71.7307 43.1889 71.7307 42.2555C71.7307 41.3221 72.4855 40.5655 73.4167 40.5655C74.3478 40.5655 75.1027 41.3221 75.1027 42.2555Z" fill="white"/>
<path d="M85.2187 42.2555C85.2187 43.1889 84.4639 43.9455 83.5327 43.9455C82.6016 43.9455 81.8467 43.1889 81.8467 42.2555C81.8467 41.3221 82.6016 40.5655 83.5327 40.5655C84.4639 40.5655 85.2187 41.3221 85.2187 42.2555Z" fill="white"/>
<path d="M95.3348 42.2555C95.3348 43.1889 94.5799 43.9455 93.6488 43.9455C92.7176 43.9455 91.9628 43.1889 91.9628 42.2555C91.9628 41.3221 92.7176 40.5655 93.6488 40.5655C94.5799 40.5655 95.3348 41.3221 95.3348 42.2555Z" fill="white"/>
<path d="M105.451 42.2555C105.451 43.1889 104.696 43.9455 103.765 43.9455C102.834 43.9455 102.079 43.1889 102.079 42.2555C102.079 41.3221 102.834 40.5655 103.765 40.5655C104.696 40.5655 105.451 41.3221 105.451 42.2555Z" fill="white"/>
<path d="M4.29047 52.3955C4.29047 53.3289 3.53562 54.0855 2.60446 54.0855C1.67331 54.0855 0.918457 53.3289 0.918457 52.3955C0.918457 51.4622 1.67331 50.7055 2.60446 50.7055C3.53562 50.7055 4.29047 51.4622 4.29047 52.3955Z" fill="white"/>
<path d="M14.4065 52.3955C14.4065 53.3289 13.6517 54.0855 12.7205 54.0855C11.7893 54.0855 11.0345 53.3289 11.0345 52.3955C11.0345 51.4622 11.7893 50.7055 12.7205 50.7055C13.6517 50.7055 14.4065 51.4622 14.4065 52.3955Z" fill="white"/>
<path d="M24.5225 52.3955C24.5225 53.3289 23.7677 54.0855 22.8365 54.0855C21.9054 54.0855 21.1505 53.3289 21.1505 52.3955C21.1505 51.4622 21.9054 50.7055 22.8365 50.7055C23.7677 50.7055 24.5225 51.4622 24.5225 52.3955Z" fill="white"/>
<path d="M34.6386 52.3955C34.6386 53.3289 33.8837 54.0855 32.9526 54.0855C32.0214 54.0855 31.2666 53.3289 31.2666 52.3955C31.2666 51.4622 32.0214 50.7055 32.9526 50.7055C33.8837 50.7055 34.6386 51.4622 34.6386 52.3955Z" fill="white"/>
<path d="M44.7546 52.3955C44.7546 53.3289 43.9997 54.0855 43.0686 54.0855C42.1374 54.0855 41.3826 53.3289 41.3826 52.3955C41.3826 51.4622 42.1374 50.7055 43.0686 50.7055C43.9997 50.7055 44.7546 51.4622 44.7546 52.3955Z" fill="white"/>
<path d="M54.8706 52.3955C54.8706 53.3289 54.1158 54.0855 53.1846 54.0855C52.2535 54.0855 51.4986 53.3289 51.4986 52.3955C51.4986 51.4622 52.2535 50.7055 53.1846 50.7055C54.1158 50.7055 54.8706 51.4622 54.8706 52.3955Z" fill="white"/>
<path d="M64.9867 52.3955C64.9867 53.3289 64.2318 54.0855 63.3007 54.0855C62.3695 54.0855 61.6147 53.3289 61.6147 52.3955C61.6147 51.4622 62.3695 50.7055 63.3007 50.7055C64.2318 50.7055 64.9867 51.4622 64.9867 52.3955Z" fill="white"/>
<path d="M75.1027 52.3955C75.1027 53.3289 74.3478 54.0855 73.4167 54.0855C72.4855 54.0855 71.7307 53.3289 71.7307 52.3955C71.7307 51.4622 72.4855 50.7055 73.4167 50.7055C74.3478 50.7055 75.1027 51.4622 75.1027 52.3955Z" fill="white"/>
<path d="M85.2187 52.3955C85.2187 53.3289 84.4639 54.0855 83.5327 54.0855C82.6016 54.0855 81.8467 53.3289 81.8467 52.3955C81.8467 51.4622 82.6016 50.7055 83.5327 50.7055C84.4639 50.7055 85.2187 51.4622 85.2187 52.3955Z" fill="white"/>
<path d="M95.3348 52.3955C95.3348 53.3289 94.5799 54.0855 93.6488 54.0855C92.7176 54.0855 91.9628 53.3289 91.9628 52.3955C91.9628 51.4622 92.7176 50.7055 93.6488 50.7055C94.5799 50.7055 95.3348 51.4622 95.3348 52.3955Z" fill="white"/>
<path d="M105.451 52.3955C105.451 53.3289 104.696 54.0855 103.765 54.0855C102.834 54.0855 102.079 53.3289 102.079 52.3955C102.079 51.4622 102.834 50.7055 103.765 50.7055C104.696 50.7055 105.451 51.4622 105.451 52.3955Z" fill="white"/>
<path d="M4.29047 62.5356C4.29047 63.469 3.53562 64.2256 2.60446 64.2256C1.67331 64.2256 0.918457 63.469 0.918457 62.5356C0.918457 61.6022 1.67331 60.8456 2.60446 60.8456C3.53562 60.8456 4.29047 61.6022 4.29047 62.5356Z" fill="white"/>
<path d="M14.4065 62.5356C14.4065 63.469 13.6517 64.2256 12.7205 64.2256C11.7893 64.2256 11.0345 63.469 11.0345 62.5356C11.0345 61.6022 11.7893 60.8456 12.7205 60.8456C13.6517 60.8456 14.4065 61.6022 14.4065 62.5356Z" fill="white"/>
<path d="M24.5225 62.5356C24.5225 63.469 23.7677 64.2256 22.8365 64.2256C21.9054 64.2256 21.1505 63.469 21.1505 62.5356C21.1505 61.6022 21.9054 60.8456 22.8365 60.8456C23.7677 60.8456 24.5225 61.6022 24.5225 62.5356Z" fill="white"/>
<path d="M34.6386 62.5356C34.6386 63.469 33.8837 64.2256 32.9526 64.2256C32.0214 64.2256 31.2666 63.469 31.2666 62.5356C31.2666 61.6022 32.0214 60.8456 32.9526 60.8456C33.8837 60.8456 34.6386 61.6022 34.6386 62.5356Z" fill="white"/>
<path d="M44.7546 62.5356C44.7546 63.469 43.9997 64.2256 43.0686 64.2256C42.1374 64.2256 41.3826 63.469 41.3826 62.5356C41.3826 61.6022 42.1374 60.8456 43.0686 60.8456C43.9997 60.8456 44.7546 61.6022 44.7546 62.5356Z" fill="white"/>
<path d="M54.8706 62.5356C54.8706 63.469 54.1158 64.2256 53.1846 64.2256C52.2535 64.2256 51.4986 63.469 51.4986 62.5356C51.4986 61.6022 52.2535 60.8456 53.1846 60.8456C54.1158 60.8456 54.8706 61.6022 54.8706 62.5356Z" fill="white"/>
<path d="M64.9867 62.5356C64.9867 63.469 64.2318 64.2256 63.3007 64.2256C62.3695 64.2256 61.6147 63.469 61.6147 62.5356C61.6147 61.6022 62.3695 60.8456 63.3007 60.8456C64.2318 60.8456 64.9867 61.6022 64.9867 62.5356Z" fill="white"/>
<path d="M75.1027 62.5356C75.1027 63.469 74.3478 64.2256 73.4167 64.2256C72.4855 64.2256 71.7307 63.469 71.7307 62.5356C71.7307 61.6022 72.4855 60.8456 73.4167 60.8456C74.3478 60.8456 75.1027 61.6022 75.1027 62.5356Z" fill="white"/>
<path d="M85.2187 62.5356C85.2187 63.469 84.4639 64.2256 83.5327 64.2256C82.6016 64.2256 81.8467 63.469 81.8467 62.5356C81.8467 61.6022 82.6016 60.8456 83.5327 60.8456C84.4639 60.8456 85.2187 61.6022 85.2187 62.5356Z" fill="white"/>
<path d="M95.3348 62.5356C95.3348 63.469 94.5799 64.2256 93.6488 64.2256C92.7176 64.2256 91.9628 63.469 91.9628 62.5356C91.9628 61.6022 92.7176 60.8456 93.6488 60.8456C94.5799 60.8456 95.3348 61.6022 95.3348 62.5356Z" fill="white"/>
<path d="M105.451 62.5356C105.451 63.469 104.696 64.2256 103.765 64.2256C102.834 64.2256 102.079 63.469 102.079 62.5356C102.079 61.6022 102.834 60.8456 103.765 60.8456C104.696 60.8456 105.451 61.6022 105.451 62.5356Z" fill="white"/>
<path d="M4.29047 72.6757C4.29047 73.609 3.53562 74.3657 2.60446 74.3657C1.67331 74.3657 0.918457 73.609 0.918457 72.6757C0.918457 71.7423 1.67331 70.9856 2.60446 70.9856C3.53562 70.9856 4.29047 71.7423 4.29047 72.6757Z" fill="white"/>
<path d="M14.4065 72.6757C14.4065 73.609 13.6517 74.3657 12.7205 74.3657C11.7893 74.3657 11.0345 73.609 11.0345 72.6757C11.0345 71.7423 11.7893 70.9856 12.7205 70.9856C13.6517 70.9856 14.4065 71.7423 14.4065 72.6757Z" fill="white"/>
<path d="M24.5225 72.6757C24.5225 73.609 23.7677 74.3657 22.8365 74.3657C21.9054 74.3657 21.1505 73.609 21.1505 72.6757C21.1505 71.7423 21.9054 70.9856 22.8365 70.9856C23.7677 70.9856 24.5225 71.7423 24.5225 72.6757Z" fill="white"/>
<path d="M34.6386 72.6757C34.6386 73.609 33.8837 74.3657 32.9526 74.3657C32.0214 74.3657 31.2666 73.609 31.2666 72.6757C31.2666 71.7423 32.0214 70.9856 32.9526 70.9856C33.8837 70.9856 34.6386 71.7423 34.6386 72.6757Z" fill="white"/>
<path d="M44.7546 72.6757C44.7546 73.609 43.9997 74.3657 43.0686 74.3657C42.1374 74.3657 41.3826 73.609 41.3826 72.6757C41.3826 71.7423 42.1374 70.9856 43.0686 70.9856C43.9997 70.9856 44.7546 71.7423 44.7546 72.6757Z" fill="white"/>
<path d="M54.8706 72.6757C54.8706 73.609 54.1158 74.3657 53.1846 74.3657C52.2535 74.3657 51.4986 73.609 51.4986 72.6757C51.4986 71.7423 52.2535 70.9856 53.1846 70.9856C54.1158 70.9856 54.8706 71.7423 54.8706 72.6757Z" fill="white"/>
<path d="M64.9867 72.6757C64.9867 73.609 64.2318 74.3657 63.3007 74.3657C62.3695 74.3657 61.6147 73.609 61.6147 72.6757C61.6147 71.7423 62.3695 70.9856 63.3007 70.9856C64.2318 70.9856 64.9867 71.7423 64.9867 72.6757Z" fill="white"/>
<path d="M75.1027 72.6757C75.1027 73.609 74.3478 74.3657 73.4167 74.3657C72.4855 74.3657 71.7307 73.609 71.7307 72.6757C71.7307 71.7423 72.4855 70.9856 73.4167 70.9856C74.3478 70.9856 75.1027 71.7423 75.1027 72.6757Z" fill="white"/>
<path d="M85.2187 72.6757C85.2187 73.609 84.4639 74.3657 83.5327 74.3657C82.6016 74.3657 81.8467 73.609 81.8467 72.6757C81.8467 71.7423 82.6016 70.9856 83.5327 70.9856C84.4639 70.9856 85.2187 71.7423 85.2187 72.6757Z" fill="white"/>
<path d="M95.3348 72.6757C95.3348 73.609 94.5799 74.3657 93.6488 74.3657C92.7176 74.3657 91.9628 73.609 91.9628 72.6757C91.9628 71.7423 92.7176 70.9856 93.6488 70.9856C94.5799 70.9856 95.3348 71.7423 95.3348 72.6757Z" fill="white"/>
<path d="M105.451 72.6757C105.451 73.609 104.696 74.3657 103.765 74.3657C102.834 74.3657 102.079 73.609 102.079 72.6757C102.079 71.7423 102.834 70.9856 103.765 70.9856C104.696 70.9856 105.451 71.7423 105.451 72.6757Z" fill="white"/>
<path d="M4.29047 82.8157C4.29047 83.7491 3.53562 84.5057 2.60446 84.5057C1.67331 84.5057 0.918457 83.7491 0.918457 82.8157C0.918457 81.8823 1.67331 81.1257 2.60446 81.1257C3.53562 81.1257 4.29047 81.8823 4.29047 82.8157Z" fill="white"/>
<path d="M14.4065 82.8157C14.4065 83.7491 13.6517 84.5057 12.7205 84.5057C11.7893 84.5057 11.0345 83.7491 11.0345 82.8157C11.0345 81.8823 11.7893 81.1257 12.7205 81.1257C13.6517 81.1257 14.4065 81.8823 14.4065 82.8157Z" fill="white"/>
<path d="M24.5225 82.8157C24.5225 83.7491 23.7677 84.5057 22.8365 84.5057C21.9054 84.5057 21.1505 83.7491 21.1505 82.8157C21.1505 81.8823 21.9054 81.1257 22.8365 81.1257C23.7677 81.1257 24.5225 81.8823 24.5225 82.8157Z" fill="white"/>
<path d="M34.6386 82.8157C34.6386 83.7491 33.8837 84.5057 32.9526 84.5057C32.0214 84.5057 31.2666 83.7491 31.2666 82.8157C31.2666 81.8823 32.0214 81.1257 32.9526 81.1257C33.8837 81.1257 34.6386 81.8823 34.6386 82.8157Z" fill="white"/>
<path d="M44.7546 82.8157C44.7546 83.7491 43.9997 84.5057 43.0686 84.5057C42.1374 84.5057 41.3826 83.7491 41.3826 82.8157C41.3826 81.8823 42.1374 81.1257 43.0686 81.1257C43.9997 81.1257 44.7546 81.8823 44.7546 82.8157Z" fill="white"/>
<path d="M54.8706 82.8157C54.8706 83.7491 54.1158 84.5057 53.1846 84.5057C52.2535 84.5057 51.4986 83.7491 51.4986 82.8157C51.4986 81.8823 52.2535 81.1257 53.1846 81.1257C54.1158 81.1257 54.8706 81.8823 54.8706 82.8157Z" fill="white"/>
<path d="M64.9867 82.8157C64.9867 83.7491 64.2318 84.5057 63.3007 84.5057C62.3695 84.5057 61.6147 83.7491 61.6147 82.8157C61.6147 81.8823 62.3695 81.1257 63.3007 81.1257C64.2318 81.1257 64.9867 81.8823 64.9867 82.8157Z" fill="white"/>
<path d="M75.1027 82.8157C75.1027 83.7491 74.3478 84.5057 73.4167 84.5057C72.4855 84.5057 71.7307 83.7491 71.7307 82.8157C71.7307 81.8823 72.4855 81.1257 73.4167 81.1257C74.3478 81.1257 75.1027 81.8823 75.1027 82.8157Z" fill="white"/>
<path d="M85.2187 82.8157C85.2187 83.7491 84.4639 84.5057 83.5327 84.5057C82.6016 84.5057 81.8467 83.7491 81.8467 82.8157C81.8467 81.8823 82.6016 81.1257 83.5327 81.1257C84.4639 81.1257 85.2187 81.8823 85.2187 82.8157Z" fill="white"/>
<path d="M95.3348 82.8157C95.3348 83.7491 94.5799 84.5057 93.6488 84.5057C92.7176 84.5057 91.9628 83.7491 91.9628 82.8157C91.9628 81.8823 92.7176 81.1257 93.6488 81.1257C94.5799 81.1257 95.3348 81.8823 95.3348 82.8157Z" fill="white"/>
<path d="M105.451 82.8157C105.451 83.7491 104.696 84.5057 103.765 84.5057C102.834 84.5057 102.079 83.7491 102.079 82.8157C102.079 81.8823 102.834 81.1257 103.765 81.1257C104.696 81.1257 105.451 81.8823 105.451 82.8157Z" fill="white"/>
<path d="M4.29047 92.9558C4.29047 93.8891 3.53562 94.6458 2.60446 94.6458C1.67331 94.6458 0.918457 93.8891 0.918457 92.9558C0.918457 92.0224 1.67331 91.2658 2.60446 91.2658C3.53562 91.2658 4.29047 92.0224 4.29047 92.9558Z" fill="white"/>
<path d="M14.4065 92.9558C14.4065 93.8891 13.6517 94.6458 12.7205 94.6458C11.7893 94.6458 11.0345 93.8891 11.0345 92.9558C11.0345 92.0224 11.7893 91.2658 12.7205 91.2658C13.6517 91.2658 14.4065 92.0224 14.4065 92.9558Z" fill="white"/>
<path d="M24.5225 92.9558C24.5225 93.8891 23.7677 94.6458 22.8365 94.6458C21.9054 94.6458 21.1505 93.8891 21.1505 92.9558C21.1505 92.0224 21.9054 91.2658 22.8365 91.2658C23.7677 91.2658 24.5225 92.0224 24.5225 92.9558Z" fill="white"/>
<path d="M34.6386 92.9558C34.6386 93.8891 33.8837 94.6458 32.9526 94.6458C32.0214 94.6458 31.2666 93.8891 31.2666 92.9558C31.2666 92.0224 32.0214 91.2658 32.9526 91.2658C33.8837 91.2658 34.6386 92.0224 34.6386 92.9558Z" fill="white"/>
<path d="M44.7546 92.9558C44.7546 93.8891 43.9997 94.6458 43.0686 94.6458C42.1374 94.6458 41.3826 93.8891 41.3826 92.9558C41.3826 92.0224 42.1374 91.2658 43.0686 91.2658C43.9997 91.2658 44.7546 92.0224 44.7546 92.9558Z" fill="white"/>
<path d="M54.8706 92.9558C54.8706 93.8891 54.1158 94.6458 53.1846 94.6458C52.2535 94.6458 51.4986 93.8891 51.4986 92.9558C51.4986 92.0224 52.2535 91.2658 53.1846 91.2658C54.1158 91.2658 54.8706 92.0224 54.8706 92.9558Z" fill="white"/>
<path d="M64.9867 92.9558C64.9867 93.8891 64.2318 94.6458 63.3007 94.6458C62.3695 94.6458 61.6147 93.8891 61.6147 92.9558C61.6147 92.0224 62.3695 91.2658 63.3007 91.2658C64.2318 91.2658 64.9867 92.0224 64.9867 92.9558Z" fill="white"/>
<path d="M75.1027 92.9558C75.1027 93.8891 74.3478 94.6458 73.4167 94.6458C72.4855 94.6458 71.7307 93.8891 71.7307 92.9558C71.7307 92.0224 72.4855 91.2658 73.4167 91.2658C74.3478 91.2658 75.1027 92.0224 75.1027 92.9558Z" fill="white"/>
<path d="M85.2187 92.9558C85.2187 93.8891 84.4639 94.6458 83.5327 94.6458C82.6016 94.6458 81.8467 93.8891 81.8467 92.9558C81.8467 92.0224 82.6016 91.2658 83.5327 91.2658C84.4639 91.2658 85.2187 92.0224 85.2187 92.9558Z" fill="white"/>
<path d="M95.3348 92.9558C95.3348 93.8891 94.5799 94.6458 93.6488 94.6458C92.7176 94.6458 91.9628 93.8891 91.9628 92.9558C91.9628 92.0224 92.7176 91.2658 93.6488 91.2658C94.5799 91.2658 95.3348 92.0224 95.3348 92.9558Z" fill="white"/>
<path d="M105.451 92.9558C105.451 93.8891 104.696 94.6458 103.765 94.6458C102.834 94.6458 102.079 93.8891 102.079 92.9558C102.079 92.0224 102.834 91.2658 103.765 91.2658C104.696 91.2658 105.451 92.0224 105.451 92.9558Z" fill="white"/>
<path d="M4.29047 103.096C4.29047 104.029 3.53562 104.786 2.60446 104.786C1.67331 104.786 0.918457 104.029 0.918457 103.096C0.918457 102.162 1.67331 101.406 2.60446 101.406C3.53562 101.406 4.29047 102.162 4.29047 103.096Z" fill="white"/>
<path d="M14.4065 103.096C14.4065 104.029 13.6517 104.786 12.7205 104.786C11.7893 104.786 11.0345 104.029 11.0345 103.096C11.0345 102.162 11.7893 101.406 12.7205 101.406C13.6517 101.406 14.4065 102.162 14.4065 103.096Z" fill="white"/>
<path d="M24.5225 103.096C24.5225 104.029 23.7677 104.786 22.8365 104.786C21.9054 104.786 21.1505 104.029 21.1505 103.096C21.1505 102.162 21.9054 101.406 22.8365 101.406C23.7677 101.406 24.5225 102.162 24.5225 103.096Z" fill="white"/>
<path d="M34.6386 103.096C34.6386 104.029 33.8837 104.786 32.9526 104.786C32.0214 104.786 31.2666 104.029 31.2666 103.096C31.2666 102.162 32.0214 101.406 32.9526 101.406C33.8837 101.406 34.6386 102.162 34.6386 103.096Z" fill="white"/>
<path d="M44.7546 103.096C44.7546 104.029 43.9997 104.786 43.0686 104.786C42.1374 104.786 41.3826 104.029 41.3826 103.096C41.3826 102.162 42.1374 101.406 43.0686 101.406C43.9997 101.406 44.7546 102.162 44.7546 103.096Z" fill="white"/>
<path d="M54.8706 103.096C54.8706 104.029 54.1158 104.786 53.1846 104.786C52.2535 104.786 51.4986 104.029 51.4986 103.096C51.4986 102.162 52.2535 101.406 53.1846 101.406C54.1158 101.406 54.8706 102.162 54.8706 103.096Z" fill="white"/>
<path d="M64.9867 103.096C64.9867 104.029 64.2318 104.786 63.3007 104.786C62.3695 104.786 61.6147 104.029 61.6147 103.096C61.6147 102.162 62.3695 101.406 63.3007 101.406C64.2318 101.406 64.9867 102.162 64.9867 103.096Z" fill="white"/>
<path d="M75.1027 103.096C75.1027 104.029 74.3478 104.786 73.4167 104.786C72.4855 104.786 71.7307 104.029 71.7307 103.096C71.7307 102.162 72.4855 101.406 73.4167 101.406C74.3478 101.406 75.1027 102.162 75.1027 103.096Z" fill="white"/>
<path d="M85.2187 103.096C85.2187 104.029 84.4639 104.786 83.5327 104.786C82.6016 104.786 81.8467 104.029 81.8467 103.096C81.8467 102.162 82.6016 101.406 83.5327 101.406C84.4639 101.406 85.2187 102.162 85.2187 103.096Z" fill="white"/>
<path d="M95.3348 103.096C95.3348 104.029 94.5799 104.786 93.6488 104.786C92.7176 104.786 91.9628 104.029 91.9628 103.096C91.9628 102.162 92.7176 101.406 93.6488 101.406C94.5799 101.406 95.3348 102.162 95.3348 103.096Z" fill="white"/>
<path d="M105.451 103.096C105.451 104.029 104.696 104.786 103.765 104.786C102.834 104.786 102.079 104.029 102.079 103.096C102.079 102.162 102.834 101.406 103.765 101.406C104.696 101.406 105.451 102.162 105.451 103.096Z" fill="white"/>
<path d="M4.29047 113.236C4.29047 114.169 3.53562 114.926 2.60446 114.926C1.67331 114.926 0.918457 114.169 0.918457 113.236C0.918457 112.303 1.67331 111.546 2.60446 111.546C3.53562 111.546 4.29047 112.303 4.29047 113.236Z" fill="white"/>
<path d="M14.4065 113.236C14.4065 114.169 13.6517 114.926 12.7205 114.926C11.7893 114.926 11.0345 114.169 11.0345 113.236C11.0345 112.303 11.7893 111.546 12.7205 111.546C13.6517 111.546 14.4065 112.303 14.4065 113.236Z" fill="white"/>
<path d="M24.5225 113.236C24.5225 114.169 23.7677 114.926 22.8365 114.926C21.9054 114.926 21.1505 114.169 21.1505 113.236C21.1505 112.303 21.9054 111.546 22.8365 111.546C23.7677 111.546 24.5225 112.303 24.5225 113.236Z" fill="white"/>
<path d="M34.6386 113.236C34.6386 114.169 33.8837 114.926 32.9526 114.926C32.0214 114.926 31.2666 114.169 31.2666 113.236C31.2666 112.303 32.0214 111.546 32.9526 111.546C33.8837 111.546 34.6386 112.303 34.6386 113.236Z" fill="white"/>
<path d="M44.7546 113.236C44.7546 114.169 43.9997 114.926 43.0686 114.926C42.1374 114.926 41.3826 114.169 41.3826 113.236C41.3826 112.303 42.1374 111.546 43.0686 111.546C43.9997 111.546 44.7546 112.303 44.7546 113.236Z" fill="white"/>
<path d="M54.8706 113.236C54.8706 114.169 54.1158 114.926 53.1846 114.926C52.2535 114.926 51.4986 114.169 51.4986 113.236C51.4986 112.303 52.2535 111.546 53.1846 111.546C54.1158 111.546 54.8706 112.303 54.8706 113.236Z" fill="white"/>
<path d="M64.9867 113.236C64.9867 114.169 64.2318 114.926 63.3007 114.926C62.3695 114.926 61.6147 114.169 61.6147 113.236C61.6147 112.303 62.3695 111.546 63.3007 111.546C64.2318 111.546 64.9867 112.303 64.9867 113.236Z" fill="white"/>
<path d="M75.1027 113.236C75.1027 114.169 74.3478 114.926 73.4167 114.926C72.4855 114.926 71.7307 114.169 71.7307 113.236C71.7307 112.303 72.4855 111.546 73.4167 111.546C74.3478 111.546 75.1027 112.303 75.1027 113.236Z" fill="white"/>
<path d="M85.2187 113.236C85.2187 114.169 84.4639 114.926 83.5327 114.926C82.6016 114.926 81.8467 114.169 81.8467 113.236C81.8467 112.303 82.6016 111.546 83.5327 111.546C84.4639 111.546 85.2187 112.303 85.2187 113.236Z" fill="white"/>
<path d="M95.3348 113.236C95.3348 114.169 94.5799 114.926 93.6488 114.926C92.7176 114.926 91.9628 114.169 91.9628 113.236C91.9628 112.303 92.7176 111.546 93.6488 111.546C94.5799 111.546 95.3348 112.303 95.3348 113.236Z" fill="white"/>
<path d="M105.451 113.236C105.451 114.169 104.696 114.926 103.765 114.926C102.834 114.926 102.079 114.169 102.079 113.236C102.079 112.303 102.834 111.546 103.765 111.546C104.696 111.546 105.451 112.303 105.451 113.236Z" fill="white"/>
</g>
</svg>
