<svg width="10" height="12" viewBox="0 0 10 12" fill="none" xmlns="http://www.w3.org/2000/svg">
<path d="M4.35838 2.44998L4.97504 1.61664C5.09689 1.44779 5.2515 1.30522 5.42965 1.19744C5.60781 1.08966 5.80585 1.01888 6.01196 0.989327C6.21807 0.959772 6.42803 0.972047 6.62929 1.02542C6.83055 1.07879 7.019 1.17217 7.18338 1.29998L8.57505 2.37498C8.90362 2.64187 9.11833 3.02378 9.1756 3.4432C9.23286 3.86262 9.12839 4.28811 8.88338 4.63331L8.26671 5.46664C7.81266 5.55853 7.34401 5.55021 6.89351 5.44226C6.443 5.33431 6.02148 5.12934 5.65838 4.84164C5.28561 4.55691 4.97713 4.1967 4.75311 3.78456C4.52909 3.37243 4.39459 2.91766 4.35838 2.44998ZM4.96671 5.78331C4.27306 5.244 3.74705 4.51857 3.45004 3.69164L1.11671 6.83331C0.935915 7.0896 0.83712 7.3947 0.833378 7.70831V9.80831C0.826367 9.99229 0.862384 10.1754 0.938563 10.343C1.01474 10.5106 1.12898 10.6581 1.2722 10.7738C1.41542 10.8895 1.58365 10.9702 1.76354 11.0095C1.94342 11.0487 2.12998 11.0455 2.30838 11L4.27504 10.4C4.57545 10.3111 4.83872 10.1268 5.02504 9.87498L7.35004 6.72498C6.49152 6.64142 5.67545 6.31151 5.00004 5.77498L4.96671 5.78331Z" fill="white"/>
</svg>
