<svg width="25" height="30" viewBox="0 0 25 30" fill="none" xmlns="http://www.w3.org/2000/svg">
<path opacity="0.3" d="M9.36475 28.4604L2.671 22.9916C2.09862 22.5293 1.63663 21.9451 1.31874 21.2816C1.00085 20.6181 0.835076 19.8919 0.833496 19.1562V8.43745C0.834037 7.48521 1.10957 6.5534 1.62698 5.754C2.14439 4.9546 2.88166 4.32164 3.75016 3.93119L10.4585 0.868695C11.1038 0.573543 11.8051 0.420776 12.5147 0.420776C13.2244 0.420776 13.9257 0.573543 14.571 0.868695L21.2502 3.93119C22.1187 4.32164 22.8559 4.9546 23.3733 5.754C23.8908 6.5534 24.1663 7.48521 24.1668 8.43745V19.1562C24.167 19.8908 24.0035 20.6162 23.6882 21.2796C23.3728 21.9431 22.9136 22.5279 22.3439 22.9916L15.6502 28.4604C14.7662 29.1919 13.6548 29.5922 12.5075 29.5922C11.3601 29.5922 10.2487 29.1919 9.36475 28.4604Z" fill="#3E97FF"/>
<path d="M15.4169 18.9375C15.2766 18.9389 15.1373 18.9126 15.0072 18.8601C14.877 18.8075 14.7585 18.7297 14.6586 18.6312L8.82524 12.9291C8.62042 12.7241 8.50537 12.4461 8.50537 12.1562C8.50537 11.8664 8.62042 11.5884 8.82524 11.3833C9.03461 11.181 9.31434 11.068 9.60545 11.068C9.89656 11.068 10.1763 11.181 10.3857 11.3833L16.219 17.0854C16.4238 17.2905 16.5389 17.5685 16.5389 17.8583C16.5389 18.1482 16.4238 18.4261 16.219 18.6312C16.1124 18.7331 15.9865 18.8126 15.8488 18.8652C15.7111 18.9178 15.5643 18.9423 15.4169 18.9375Z" fill="#3E97FF"/>
<path d="M9.58345 18.9375C9.43752 18.9385 9.29284 18.9107 9.1577 18.8556C9.02256 18.8006 8.89963 18.7194 8.79595 18.6167C8.59112 18.4116 8.47607 18.1336 8.47607 17.8437C8.47607 17.5539 8.59112 17.2759 8.79595 17.0708L14.6293 11.3687C14.7219 11.2338 14.8436 11.1213 14.9855 11.0396C15.1274 10.9579 15.2858 10.9092 15.4491 10.8969C15.6123 10.8846 15.7762 10.9091 15.9287 10.9686C16.0813 11.0281 16.2185 11.1211 16.3302 11.2407C16.442 11.3603 16.5255 11.5035 16.5746 11.6597C16.6237 11.8159 16.6371 11.9811 16.6138 12.1431C16.5905 12.3052 16.5311 12.4599 16.4401 12.596C16.349 12.732 16.2286 12.8459 16.0876 12.9292L10.2543 18.6312C10.0715 18.8059 9.83516 18.9138 9.58345 18.9375Z" fill="#3E97FF"/>
</svg>
