<svg width="28" height="26" viewBox="0 0 28 26" fill="none" xmlns="http://www.w3.org/2000/svg">
<path d="M0.666626 13L11.3333 16.2L27.3333 13L16.6666 9.80005L0.666626 13Z" fill="#50CD89"/>
<path d="M25.8668 7.96004L0.666827 13V6.49338C0.66779 6.07212 0.814322 5.66415 1.08161 5.33855C1.34889 5.01295 1.7205 4.78973 2.13349 4.70671L25.4935 0.0400513C25.7158 -0.00782526 25.946 -0.00521256 26.1671 0.0476969C26.3883 0.100606 26.5948 0.202464 26.7713 0.345765C26.9479 0.489066 27.0901 0.670158 27.1874 0.875697C27.2846 1.08124 27.3346 1.30599 27.3335 1.53338V6.17338C27.3325 6.59463 27.186 7.00261 26.9187 7.32821C26.6514 7.65381 26.2798 7.87702 25.8668 7.96004ZM27.3335 19.5067V13L2.13349 18.04C1.7205 18.1231 1.34889 18.3463 1.08161 18.6719C0.814322 18.9975 0.66779 19.4054 0.666827 19.8267V24.4667C0.66572 24.6941 0.715648 24.9188 0.812934 25.1244C0.91022 25.3299 1.05238 25.511 1.22895 25.6543C1.40552 25.7976 1.61199 25.8995 1.83315 25.9524C2.05431 26.0053 2.28452 26.0079 2.50683 25.96L25.8668 21.2934C26.2798 21.2103 26.6514 20.9871 26.9187 20.6615C27.186 20.3359 27.3325 19.928 27.3335 19.5067Z" fill="#2884EF"/>
</svg>
